<svg width="26" height="23" viewBox="0 0 26 23" fill="none" xmlns="http://www.w3.org/2000/svg">
<g id="fireplace">
<path id="Rectangle" fill-rule="evenodd" clip-rule="evenodd" d="M22.9685 6.5625H2.46094V22.1482H22.9685V6.5625ZM3.73872 20.8705V7.84028H21.6907V20.8705H3.73872Z" fill="#00A8FF"/>
<path id="Rectangle_2" fill-rule="evenodd" clip-rule="evenodd" d="M25.4294 4.10156H0V7.67556H25.4294V4.10156ZM1.27778 6.39779V5.37934H24.1516V6.39779H1.27778Z" fill="#00A8FF"/>
<rect id="Rectangle_3" y="20.5076" width="25.4294" height="1.6406" fill="#00A8FF"/>
<path id="Rectangle_4" fill-rule="evenodd" clip-rule="evenodd" d="M18.867 16.8162C18.867 13.4184 16.1126 10.6639 12.7148 10.6639C9.31696 10.6639 6.5625 13.4184 6.5625 16.8162V22.1482H18.867V16.8162ZM12.7148 11.9417C15.4069 11.9417 17.5892 14.1241 17.5892 16.8162V20.8704H7.84028V16.8162C7.84028 14.1241 10.0227 11.9417 12.7148 11.9417Z" fill="#00A8FF"/>
<path id="Rectangle_5" fill-rule="evenodd" clip-rule="evenodd" d="M21.3282 0.374756H4.1019L1.3418 5.29657H24.2265L21.3282 0.374756ZM21.9912 4.01879H3.52335L4.85032 1.65253H20.5978L21.9912 4.01879Z" fill="#00A8FF"/>
</g>
</svg>
