<svg width="25" height="25" viewBox="0 0 25 25" fill="none" xmlns="http://www.w3.org/2000/svg">
<g id="frame">
<path id="Shape" fill-rule="evenodd" clip-rule="evenodd" d="M24.8905 5.75515C24.8358 5.62236 24.7301 5.51667 24.5973 5.46192C24.5312 5.43482 24.4607 5.42019 24.3902 5.42019H18.1106L12.8493 0.158943C12.6374 -0.052981 12.2949 -0.052981 12.0829 0.158943L6.82168 5.42019H0.542005C0.471545 5.42019 0.401084 5.43482 0.334959 5.46192C0.202168 5.51667 0.096477 5.62236 0.0417344 5.75515C0.0146341 5.82127 0 5.89173 0 5.96219V24.3904C0 24.4608 0.0146341 24.5313 0.0417344 24.5974C0.096477 24.7302 0.202168 24.8359 0.334959 24.8906C0.401084 24.9177 0.471545 24.9324 0.542005 24.9324H24.3902C24.4607 24.9324 24.5312 24.9177 24.5973 24.8906C24.7301 24.8359 24.8358 24.7302 24.8905 24.5974C24.9182 24.5313 24.9322 24.4608 24.9322 24.3904V5.96219C24.9322 5.89173 24.9182 5.82127 24.8905 5.75515ZM12.4661 1.30854L16.5778 5.42019H8.35447L12.4661 1.30854ZM23.0818 6.5042H17.8862H7.04607H1.85041L4.01843 8.67222H20.9138L23.0818 6.5042ZM20.5962 9.75623V20.5963H4.33604V9.75623H20.5962ZM3.25203 9.43862L1.08401 7.2706V23.082L3.25203 20.914V9.43862ZM1.85041 23.8484L4.01843 21.6804H20.9138L23.0818 23.8484H1.85041ZM21.6802 20.914L23.8482 23.082V7.2706L21.6802 9.43862V20.914Z" fill="#00A8FF"/>
</g>
</svg>
