<svg width="120" height="40" viewBox="0 0 120 40" fill="none" xmlns="http://www.w3.org/2000/svg">
<g id="Group 31">
<path id="Fill 6" fill-rule="evenodd" clip-rule="evenodd" d="M12.3665 21.1506C12.0736 22.2427 12.7218 23.3653 13.8138 23.6584C14.9065 23.9508 16.0292 23.3025 16.3216 22.2104C16.6147 21.1177 15.9663 19.9951 14.8743 19.7026C13.7817 19.4097 12.6589 20.0579 12.3665 21.1506ZM7.36544 13.548C11.8927 7.0822 19.3526 4.49568 24.0283 7.76961C28.7043 11.0436 28.8245 18.9388 24.2973 25.4039C21.8351 28.9212 18.5034 31.2902 15.2254 32.193L14.6337 28.007C14.621 27.8073 14.5939 27.6139 14.5519 27.4274L14.5422 27.3842C14.3814 26.7083 14.0275 26.1338 13.4829 25.7521C12.6585 25.1747 11.568 25.1597 10.5145 25.6036C8.8565 26.2207 7.30796 26.2039 6.16743 25.4054C3.85897 23.7896 3.9884 19.5052 6.2763 15.2923C6.60331 14.7027 6.96592 14.119 7.36544 13.548ZM14.5519 27.4274L14.5456 27.3837L14.5519 27.4274Z" fill="#255151"/>
<path id="Fill 7" fill-rule="evenodd" clip-rule="evenodd" d="M5.31233 8.97393C5.91449 5.55674 9.1724 3.2763 12.5898 3.8796C16.0071 4.48359 18.2891 7.74266 17.687 11.1593C17.0853 14.5767 13.8264 16.8569 10.4096 16.2536C6.99175 15.6498 4.70972 12.3907 5.31233 8.97393Z" fill="#54CF9A"/>
<path id="Fill 8" fill-rule="evenodd" clip-rule="evenodd" d="M11.3995 21.4983C11.1069 22.591 11.7552 23.7136 12.8473 24.006C13.9393 24.2991 15.0626 23.6509 15.355 22.5582C15.6475 21.4661 14.9993 20.3435 13.9072 20.0505C12.8145 19.758 11.6919 20.4062 11.3995 21.4983ZM6.39885 13.8956C9.21387 9.87509 13.1635 7.35465 16.8723 6.8107C19.1275 6.48009 21.2938 6.88007 23.0618 8.11803C27.737 11.3913 27.8575 19.2866 23.3301 25.7517C20.8679 29.2691 17.5364 31.6387 14.2584 32.5408L13.6665 28.3549C13.6537 28.1558 13.6269 27.9617 13.5847 27.7757L13.575 27.7326C13.4149 27.0567 13.0602 26.4816 12.5157 26.0999C11.6912 25.5223 10.601 25.5075 9.54744 25.9519C7.88939 26.5691 6.34074 26.5524 5.2009 25.7539C2.89244 24.1374 3.02136 19.8535 5.30908 15.6401C5.63606 15.0512 5.99874 14.4668 6.39885 13.8956ZM13.5847 27.7757L13.579 27.732L13.5847 27.7757Z" fill="#0F93D3"/>
<path id="Fill 9" fill-rule="evenodd" clip-rule="evenodd" d="M16.8716 6.81067C17.6347 8.06837 17.9622 9.59719 17.687 11.1594C17.0854 14.5767 13.8265 16.8571 10.4096 16.2536C8.76371 15.963 7.38114 15.0558 6.45703 13.8125C9.26813 9.84067 13.1884 7.351 16.8716 6.81067Z" fill="#255151"/>
<path id="Fill 10" fill-rule="evenodd" clip-rule="evenodd" d="M18.4246 2.65342C36.3311 1.36619 34.9903 29.6887 16.9475 35.566C15.3958 36.1775 13.708 36.5585 12.1219 36.9949C11.5906 37.1411 11.0971 36.817 11.0206 36.2713L10.0638 29.1861C9.27282 29.471 8.71896 29.5787 7.41215 29.7302C6.6027 29.824 5.42543 29.6835 4.89687 29.5546C-0.823222 28.2011 -1.19562 19.8109 2.04208 13.8456C2.13134 13.6844 2.22449 13.522 2.31944 13.3591C2.11352 12.8939 1.94889 12.4006 1.83072 11.8866C1.54169 10.9182 1.51185 9.55717 1.7444 8.24009C3.17396 0.132976 12.8847 -2.51053 18.4246 2.65342ZM17.4754 4.17731C12.974 -0.383984 4.67639 1.71167 3.47206 8.5446C3.26943 9.69657 3.3327 10.81 3.52676 11.4357C3.9747 13.4248 4.62859 12.8035 3.58145 14.6861C-0.712567 22.5978 2.21653 30.5977 10.4829 27.5206C11.2474 27.2363 11.5624 27.9283 11.6947 28.4826L12.6205 35.0461C13.8703 34.7186 15.1633 34.387 16.3533 33.9155C32.589 28.6507 34.3467 2.88987 18.1828 4.43399C18.1207 4.43988 17.946 4.47011 17.7964 4.4149C17.639 4.3568 17.517 4.2194 17.4754 4.17731Z" fill="#0F93D3"/>
<path id="Fill 11" fill-rule="evenodd" clip-rule="evenodd" d="M119.971 20.9462C119.971 19.3632 119.377 18.176 116.805 17.0877C115.815 16.593 115.123 16.0983 115.123 15.2079C115.123 14.4164 115.617 13.8228 116.607 13.8228C117.497 13.8228 118.289 14.2185 118.685 14.5154L119.674 12.2398C118.586 11.6461 117.398 11.3494 115.815 11.3494C113.045 11.3494 111.264 13.1302 111.264 15.4058C111.264 16.7908 111.858 18.176 114.331 19.1654C115.519 19.6601 116.013 20.1548 116.013 21.0452C116.013 21.9356 115.321 22.5293 114.331 22.5293C113.342 22.5293 112.451 22.1335 111.957 21.7377L110.967 24.2112C111.759 24.8048 113.243 25.2005 114.925 25.2005C118.091 25.2005 119.971 23.3207 119.971 20.9462ZM101.964 25.2005C104.24 25.2005 105.724 24.8048 106.812 24.2112L105.922 21.8367C105.229 22.2324 104.042 22.5293 102.459 22.5293C102.063 22.5293 101.667 22.5293 101.271 22.4303C100.084 22.1335 99.3917 21.1441 99.1938 19.6601L107.208 18.4728C107.406 13.9217 105.427 11.3494 101.568 11.3494C97.3752 11.3494 95.5332 14.3762 95.5332 18.2749C95.5332 22.3734 97.7336 25.2005 101.964 25.2005ZM98.9959 17.7803C98.869 16.0052 99.2082 13.6249 101.469 13.6249C102.854 13.6249 103.646 14.6142 103.646 17.0877L98.9959 17.7803ZM92.6639 11.3494C89.0033 11.1515 86.9256 11.5472 85.4415 12.3387V25.0027H89.3001V14.0207C89.9927 13.7238 90.9821 13.7238 91.8725 14.1196L92.6639 11.3494ZM68.7211 18.3739C68.7211 22.5923 70.981 25.2005 75.251 25.2005C77.6255 25.2005 79.2084 24.9037 80.3957 24.2112V5.41309H76.5371V11.6461C71.7274 10.6848 68.7211 13.3931 68.7211 18.3739ZM75.4489 13.6249C75.8446 13.6249 76.1507 13.6249 76.5371 13.7238V22.5293C76.2403 22.7271 75.8446 22.7271 75.3499 22.7271C72.9065 22.7271 72.4807 20.145 72.4807 18.176C72.4807 16.1213 72.9439 13.6249 75.4489 13.6249ZM64.0711 25.0027V15.6037C64.0711 13.1302 62.587 11.3494 58.3326 11.3494C55.9582 11.3494 54.0783 11.7451 52.6932 12.3387V25.0027H56.6507V14.0207C57.0465 13.8228 57.4422 13.7238 58.2337 13.7238C59.8167 13.7238 60.2125 14.6142 60.2125 15.6037V25.0027H64.0711ZM40.2271 20.8473C40.2271 19.3632 40.9197 18.6707 42.1069 18.2749C42.7006 18.0771 43.2941 17.9781 44.0857 17.9781V22.8261C43.6899 23.0239 43.1952 23.1229 42.6016 23.1229C41.1771 23.1229 40.2271 22.315 40.2271 20.8473ZM42.1069 11.3494C39.9303 11.3494 38.2483 11.943 37.3579 12.3387L38.2483 14.5154C39.0398 14.1196 40.425 13.7238 41.7111 13.7238C42.9206 13.7238 44.0857 14.0549 44.0857 15.5047V16.0983C43.3931 16.1972 42.7006 16.2962 42.1069 16.3951C38.9409 16.8898 36.5664 18.0771 36.5664 20.9462C36.5664 23.7165 38.4463 25.1016 42.1069 25.2005C42.2058 25.2005 42.3048 25.2005 42.4037 25.2005C44.7782 25.2005 46.5591 24.8048 47.6474 24.2112V16.1972C47.6474 12.5366 45.4708 11.3494 42.4037 11.3494C42.3048 11.3494 42.2058 11.3494 42.1069 11.3494Z" fill="#255151"/>
<path id="Fill 12" fill-rule="evenodd" clip-rule="evenodd" d="M59.1629 37.8366C59.1629 38.5326 58.9559 39.0625 58.5421 39.4263C58.1533 39.7649 57.6203 39.9342 56.943 39.9342C56.1341 39.9342 55.5038 39.8088 55.0523 39.558L55.4286 38.6079C55.7985 38.8086 56.2156 38.9089 56.6796 38.9089C57.382 38.9089 57.7331 38.5923 57.7331 37.9588V37.6767C57.5387 37.7833 57.244 37.8366 56.8489 37.8366C56.2344 37.8366 55.7327 37.6155 55.3439 37.1735C54.9551 36.7313 54.7607 36.1372 54.7607 35.3909C54.7607 34.5255 54.9818 33.8499 55.4239 33.3639C55.866 32.8779 56.5134 32.6349 57.3663 32.6349C58.1502 32.6349 58.749 32.7603 59.1629 33.0111V37.8366ZM57.7331 36.8771V33.5661C57.6203 33.5097 57.4682 33.4814 57.2754 33.4814C56.5714 33.4814 56.2187 34.0897 56.2187 35.3063C56.2187 36.435 56.5621 36.9994 57.2471 36.9994C57.44 36.9994 57.603 36.9587 57.7331 36.8771ZM61.7496 37.799H60.2916V30.4055H61.7496V37.799ZM66.8761 37.5168C66.4058 37.7676 65.7442 37.893 64.8913 37.893C63.4114 37.893 62.6714 37.36 62.6714 36.2939C62.6714 35.6919 62.9536 35.2404 63.518 34.9394C63.9633 34.7011 64.6248 34.5412 65.5028 34.4597V34.2245C65.5028 33.773 65.2049 33.5473 64.6091 33.5473C64.1827 33.5473 63.7437 33.6507 63.2923 33.8577L62.9724 33.0205C63.5807 32.7634 64.2172 32.6349 64.8819 32.6349C66.2114 32.6349 66.8761 33.2526 66.8761 34.4879V37.5168ZM65.5028 36.9806V35.1369C65.0136 35.1871 64.6593 35.2812 64.4398 35.4191C64.1765 35.5884 64.0448 35.8613 64.0448 36.2375C64.0448 36.8019 64.352 37.0841 64.9666 37.0841C65.1861 37.0841 65.3648 37.0496 65.5028 36.9806ZM71.0995 36.2846C71.0995 36.7423 70.9302 37.1186 70.5915 37.4133C70.2278 37.7268 69.7544 37.8836 69.1712 37.8836C68.5504 37.8836 68.055 37.7613 67.685 37.5168L68.0613 36.5855C68.3058 36.7862 68.6068 36.8865 68.9643 36.8865C69.1524 36.8865 69.3044 36.8348 69.4205 36.7313C69.5365 36.6279 69.5945 36.493 69.5945 36.33C69.5945 36.0227 69.3781 35.7829 68.9454 35.6135C68.1867 35.3125 67.8073 34.8407 67.8073 34.1995C67.8073 33.7605 67.964 33.3889 68.2776 33.088C68.5911 32.7854 68.9987 32.6349 69.5004 32.6349C70.0774 32.6349 70.5633 32.7572 70.9584 33.0017L70.6009 33.8389C70.3878 33.6633 70.1307 33.5755 69.8297 33.5755C69.4409 33.5755 69.2465 33.7511 69.2465 34.1022C69.2465 34.3844 69.4628 34.6165 69.8955 34.7983C70.3533 34.9927 70.6762 35.2185 70.8644 35.4756C71.0211 35.6888 71.0995 35.9584 71.0995 36.2846ZM75.116 36.2846C75.116 36.7423 74.9467 37.1186 74.6081 37.4133C74.2444 37.7268 73.7709 37.8836 73.1877 37.8836C72.5669 37.8836 72.0715 37.7613 71.7015 37.5168L72.0778 36.5855C72.3224 36.7862 72.6233 36.8865 72.9808 36.8865C73.1689 36.8865 73.3209 36.8348 73.437 36.7313C73.553 36.6279 73.611 36.493 73.611 36.33C73.611 36.0227 73.3947 35.7829 72.962 35.6135C72.2032 35.3125 71.8238 34.8407 71.8238 34.1995C71.8238 33.7605 71.9805 33.3889 72.2941 33.088C72.6076 32.7854 73.0152 32.6349 73.5169 32.6349C74.0939 32.6349 74.5799 32.7572 74.9749 33.0017L74.6175 33.8389C74.4043 33.6633 74.1472 33.5755 73.8462 33.5755C73.4574 33.5755 73.263 33.7511 73.263 34.1022C73.263 34.3844 73.4793 34.6165 73.912 34.7983C74.3698 34.9927 74.6927 35.2185 74.8809 35.4756C75.0376 35.6888 75.116 35.9584 75.116 36.2846ZM77.5522 31.271C77.5522 31.4653 77.477 31.6284 77.3265 31.7601C77.176 31.8918 76.9911 31.9576 76.7715 31.9576C76.5521 31.9576 76.3671 31.8918 76.2166 31.7601C76.066 31.6284 75.9908 31.4653 75.9908 31.271C75.9908 31.0828 76.0676 30.9213 76.2213 30.7865C76.3749 30.6517 76.5583 30.5843 76.7715 30.5843C76.9847 30.5843 77.1681 30.6517 77.3218 30.7865C77.4754 30.9213 77.5522 31.0828 77.5522 31.271ZM77.4958 37.799H76.0379V32.7289H77.4958V37.799ZM85.8016 37.799H84.3436V34.2434C84.3436 33.7856 84.0959 33.5567 83.6005 33.5567C83.3325 33.5567 83.1161 33.6382 82.9515 33.8012V37.799H81.4935V34.2245C81.4935 33.7793 81.2285 33.5567 80.6987 33.5567C80.4713 33.5567 80.2722 33.588 80.1013 33.6507V37.799H78.6434V33.0111C79.2015 32.7603 79.885 32.6349 80.6939 32.6349C81.4151 32.6349 81.9513 32.8042 82.3024 33.1428C82.6975 32.8042 83.2556 32.6349 83.9768 32.6349C84.56 32.6349 85.0147 32.7916 85.3407 33.1052C85.648 33.3937 85.8016 33.773 85.8016 34.2434V37.799ZM91.342 35.2264C91.342 36.0274 91.1365 36.6655 90.7243 37.1421C90.3119 37.6171 89.7726 37.8554 89.1063 37.8554C88.7975 37.8554 88.5514 37.8303 88.3695 37.7801V39.8213H86.9116V33.0111C87.4132 32.7603 88.0591 32.6349 88.8493 32.6349C89.6206 32.6349 90.2257 32.8543 90.6647 33.2917C91.1162 33.7495 91.342 34.3938 91.342 35.2264ZM89.884 35.2451C89.884 34.0819 89.5296 33.5003 88.8211 33.5003C88.6518 33.5003 88.5012 33.5253 88.3695 33.5755V36.9241C88.4824 36.968 88.611 36.99 88.7552 36.99C89.5077 36.99 89.884 36.4083 89.884 35.2451ZM96.5249 35.3501L93.4866 35.7829C93.5869 36.5244 93.9946 36.896 94.7095 36.896C95.2362 36.896 95.6752 36.8019 96.0263 36.6138L96.3556 37.5262C95.8664 37.7708 95.2613 37.893 94.5401 37.893C93.7688 37.893 93.1684 37.6563 92.7388 37.1828C92.3093 36.7094 92.0945 36.065 92.0945 35.2499C92.0945 34.4471 92.2952 33.8106 92.6965 33.3404C93.0978 32.87 93.6591 32.6349 94.3802 32.6349C95.1077 32.6349 95.6548 32.87 96.0216 33.3419C96.3885 33.8138 96.5562 34.4832 96.5249 35.3501ZM95.1609 34.7983C95.1609 33.9329 94.8819 33.5003 94.3238 33.5003C94.0165 33.5003 93.7813 33.6288 93.6183 33.8859C93.4427 34.1618 93.3675 34.5537 93.3926 35.0617L95.1609 34.7983ZM101.717 37.799H100.099L99.281 36.1716L98.4532 37.799H96.9669L98.5567 35.184L97.1269 32.7289H98.6695L99.4032 34.1963H99.422L100.203 32.7289H101.567L100.109 35.0805L101.717 37.799Z" fill="#0F93D3"/>
<path id="Fill 20" fill-rule="evenodd" clip-rule="evenodd" d="M12.3665 21.1506C12.0736 22.2427 12.7218 23.3653 13.8138 23.6584C14.9065 23.9508 16.0292 23.3025 16.3216 22.2104C16.6147 21.1177 15.9663 19.9951 14.8743 19.7026C13.7817 19.4097 12.6589 20.0579 12.3665 21.1506ZM7.36544 13.548C11.8927 7.0822 19.3526 4.49568 24.0283 7.76961C28.7043 11.0436 28.8245 18.9388 24.2973 25.4039C21.8351 28.9212 18.5034 31.2902 15.2254 32.193L14.6337 28.007C14.621 27.8073 14.5939 27.6139 14.5519 27.4274L14.5422 27.3842C14.3814 26.7083 14.0275 26.1338 13.4829 25.7521C12.6585 25.1747 11.568 25.1597 10.5145 25.6036C8.8565 26.2207 7.30796 26.2039 6.16743 25.4054C3.85897 23.7896 3.9884 19.5052 6.2763 15.2923C6.60331 14.7027 6.96592 14.119 7.36544 13.548ZM14.5519 27.4274L14.5456 27.3837L14.5519 27.4274Z" fill="#255151"/>
<path id="Fill 21" fill-rule="evenodd" clip-rule="evenodd" d="M5.31233 8.97393C5.91449 5.55674 9.1724 3.2763 12.5898 3.8796C16.0071 4.48359 18.2891 7.74266 17.687 11.1593C17.0853 14.5767 13.8264 16.8569 10.4096 16.2536C6.99175 15.6498 4.70972 12.3907 5.31233 8.97393Z" fill="#54CF9A"/>
<path id="Fill 22" fill-rule="evenodd" clip-rule="evenodd" d="M11.3995 21.4983C11.1069 22.591 11.7552 23.7136 12.8473 24.006C13.9393 24.2991 15.0626 23.6509 15.355 22.5582C15.6475 21.4661 14.9993 20.3435 13.9072 20.0505C12.8145 19.758 11.6919 20.4062 11.3995 21.4983ZM6.39885 13.8956C9.21387 9.87509 13.1635 7.35465 16.8723 6.8107C19.1275 6.48009 21.2938 6.88007 23.0618 8.11803C27.737 11.3913 27.8575 19.2866 23.3301 25.7517C20.8679 29.2691 17.5364 31.6387 14.2584 32.5408L13.6665 28.3549C13.6537 28.1558 13.6269 27.9617 13.5847 27.7757L13.575 27.7326C13.4149 27.0567 13.0602 26.4816 12.5157 26.0999C11.6912 25.5223 10.601 25.5075 9.54744 25.9519C7.88939 26.5691 6.34074 26.5524 5.2009 25.7539C2.89244 24.1374 3.02136 19.8535 5.30908 15.6401C5.63606 15.0512 5.99874 14.4668 6.39885 13.8956ZM13.5847 27.7757L13.579 27.732L13.5847 27.7757Z" fill="#0F93D3"/>
<path id="Fill 23" fill-rule="evenodd" clip-rule="evenodd" d="M16.8716 6.81067C17.6347 8.06837 17.9622 9.59719 17.687 11.1594C17.0854 14.5767 13.8265 16.8571 10.4096 16.2536C8.76371 15.963 7.38114 15.0558 6.45703 13.8125C9.26813 9.84067 13.1884 7.351 16.8716 6.81067Z" fill="#255151"/>
<path id="Fill 24" fill-rule="evenodd" clip-rule="evenodd" d="M18.4246 2.65342C36.3311 1.36619 34.9903 29.6887 16.9475 35.566C15.3958 36.1775 13.708 36.5585 12.1219 36.9949C11.5906 37.1411 11.0971 36.817 11.0206 36.2713L10.0638 29.1861C9.27282 29.471 8.71896 29.5787 7.41215 29.7302C6.6027 29.824 5.42543 29.6835 4.89687 29.5546C-0.823222 28.2011 -1.19562 19.8109 2.04208 13.8456C2.13134 13.6844 2.22449 13.522 2.31944 13.3591C2.11352 12.8939 1.94889 12.4006 1.83072 11.8866C1.54169 10.9182 1.51185 9.55717 1.7444 8.24009C3.17396 0.132976 12.8847 -2.51053 18.4246 2.65342ZM17.4754 4.17731C12.974 -0.383984 4.67639 1.71167 3.47206 8.5446C3.26943 9.69657 3.3327 10.81 3.52676 11.4357C3.9747 13.4248 4.62859 12.8035 3.58145 14.6861C-0.712567 22.5978 2.21653 30.5977 10.4829 27.5206C11.2474 27.2363 11.5624 27.9283 11.6947 28.4826L12.6205 35.0461C13.8703 34.7186 15.1633 34.387 16.3533 33.9155C32.589 28.6507 34.3467 2.88987 18.1828 4.43399C18.1207 4.43988 17.946 4.47011 17.7964 4.4149C17.639 4.3568 17.517 4.2194 17.4754 4.17731Z" fill="#0F93D3"/>
<path id="Fill 25" fill-rule="evenodd" clip-rule="evenodd" d="M119.971 20.9462C119.971 19.3632 119.377 18.176 116.805 17.0877C115.815 16.593 115.123 16.0983 115.123 15.2079C115.123 14.4164 115.617 13.8228 116.607 13.8228C117.497 13.8228 118.289 14.2185 118.685 14.5154L119.674 12.2398C118.586 11.6461 117.398 11.3494 115.815 11.3494C113.045 11.3494 111.264 13.1302 111.264 15.4058C111.264 16.7908 111.858 18.176 114.331 19.1654C115.519 19.6601 116.013 20.1548 116.013 21.0452C116.013 21.9356 115.321 22.5293 114.331 22.5293C113.342 22.5293 112.451 22.1335 111.957 21.7377L110.967 24.2112C111.759 24.8048 113.243 25.2005 114.925 25.2005C118.091 25.2005 119.971 23.3207 119.971 20.9462ZM101.964 25.2005C104.24 25.2005 105.724 24.8048 106.812 24.2112L105.922 21.8367C105.229 22.2324 104.042 22.5293 102.459 22.5293C102.063 22.5293 101.667 22.5293 101.271 22.4303C100.084 22.1335 99.3917 21.1441 99.1938 19.6601L107.208 18.4728C107.406 13.9217 105.427 11.3494 101.568 11.3494C97.3752 11.3494 95.5332 14.3762 95.5332 18.2749C95.5332 22.3734 97.7336 25.2005 101.964 25.2005ZM98.9959 17.7803C98.869 16.0052 99.2082 13.6249 101.469 13.6249C102.854 13.6249 103.646 14.6142 103.646 17.0877L98.9959 17.7803ZM92.6639 11.3494C89.0033 11.1515 86.9256 11.5472 85.4415 12.3387V25.0027H89.3001V14.0207C89.9927 13.7238 90.9821 13.7238 91.8725 14.1196L92.6639 11.3494ZM68.7211 18.3739C68.7211 22.5923 70.981 25.2005 75.251 25.2005C77.6255 25.2005 79.2084 24.9037 80.3957 24.2112V5.41309H76.5371V11.6461C71.7274 10.6848 68.7211 13.3931 68.7211 18.3739ZM75.4489 13.6249C75.8446 13.6249 76.1507 13.6249 76.5371 13.7238V22.5293C76.2403 22.7271 75.8446 22.7271 75.3499 22.7271C72.9065 22.7271 72.4807 20.145 72.4807 18.176C72.4807 16.1213 72.9439 13.6249 75.4489 13.6249ZM64.0711 25.0027V15.6037C64.0711 13.1302 62.587 11.3494 58.3326 11.3494C55.9582 11.3494 54.0783 11.7451 52.6932 12.3387V25.0027H56.6507V14.0207C57.0465 13.8228 57.4422 13.7238 58.2337 13.7238C59.8167 13.7238 60.2125 14.6142 60.2125 15.6037V25.0027H64.0711ZM40.2271 20.8473C40.2271 19.3632 40.9197 18.6707 42.1069 18.2749C42.7006 18.0771 43.2941 17.9781 44.0857 17.9781V22.8261C43.6899 23.0239 43.1952 23.1229 42.6016 23.1229C41.1771 23.1229 40.2271 22.315 40.2271 20.8473ZM42.1069 11.3494C39.9303 11.3494 38.2483 11.943 37.3579 12.3387L38.2483 14.5154C39.0398 14.1196 40.425 13.7238 41.7111 13.7238C42.9206 13.7238 44.0857 14.0549 44.0857 15.5047V16.0983C43.3931 16.1972 42.7006 16.2962 42.1069 16.3951C38.9409 16.8898 36.5664 18.0771 36.5664 20.9462C36.5664 23.7165 38.4463 25.1016 42.1069 25.2005C42.2058 25.2005 42.3048 25.2005 42.4037 25.2005C44.7782 25.2005 46.5591 24.8048 47.6474 24.2112V16.1972C47.6474 12.5366 45.4708 11.3494 42.4037 11.3494C42.3048 11.3494 42.2058 11.3494 42.1069 11.3494Z" fill="#255151"/>
<path id="Fill 26" fill-rule="evenodd" clip-rule="evenodd" d="M59.1629 37.8366C59.1629 38.5326 58.9559 39.0625 58.5421 39.4263C58.1533 39.7649 57.6203 39.9342 56.943 39.9342C56.1341 39.9342 55.5038 39.8088 55.0523 39.558L55.4286 38.6079C55.7985 38.8086 56.2156 38.9089 56.6796 38.9089C57.382 38.9089 57.7331 38.5923 57.7331 37.9588V37.6767C57.5387 37.7833 57.244 37.8366 56.8489 37.8366C56.2344 37.8366 55.7327 37.6155 55.3439 37.1735C54.9551 36.7313 54.7607 36.1372 54.7607 35.3909C54.7607 34.5255 54.9818 33.8499 55.4239 33.3639C55.866 32.8779 56.5134 32.6349 57.3663 32.6349C58.1502 32.6349 58.749 32.7603 59.1629 33.0111V37.8366ZM57.7331 36.8771V33.5661C57.6203 33.5097 57.4682 33.4814 57.2754 33.4814C56.5714 33.4814 56.2187 34.0897 56.2187 35.3063C56.2187 36.435 56.5621 36.9994 57.2471 36.9994C57.44 36.9994 57.603 36.9587 57.7331 36.8771ZM61.7496 37.799H60.2916V30.4055H61.7496V37.799ZM66.8761 37.5168C66.4058 37.7676 65.7442 37.893 64.8913 37.893C63.4114 37.893 62.6714 37.36 62.6714 36.2939C62.6714 35.6919 62.9536 35.2404 63.518 34.9394C63.9633 34.7011 64.6248 34.5412 65.5028 34.4597V34.2245C65.5028 33.773 65.2049 33.5473 64.6091 33.5473C64.1827 33.5473 63.7437 33.6507 63.2923 33.8577L62.9724 33.0205C63.5807 32.7634 64.2172 32.6349 64.8819 32.6349C66.2114 32.6349 66.8761 33.2526 66.8761 34.4879V37.5168ZM65.5028 36.9806V35.1369C65.0136 35.1871 64.6593 35.2812 64.4398 35.4191C64.1765 35.5884 64.0448 35.8613 64.0448 36.2375C64.0448 36.8019 64.352 37.0841 64.9666 37.0841C65.1861 37.0841 65.3648 37.0496 65.5028 36.9806ZM71.0995 36.2846C71.0995 36.7423 70.9302 37.1186 70.5915 37.4133C70.2278 37.7268 69.7544 37.8836 69.1712 37.8836C68.5504 37.8836 68.055 37.7613 67.685 37.5168L68.0613 36.5855C68.3058 36.7862 68.6068 36.8865 68.9643 36.8865C69.1524 36.8865 69.3044 36.8348 69.4205 36.7313C69.5365 36.6279 69.5945 36.493 69.5945 36.33C69.5945 36.0227 69.3781 35.7829 68.9454 35.6135C68.1867 35.3125 67.8073 34.8407 67.8073 34.1995C67.8073 33.7605 67.964 33.3889 68.2776 33.088C68.5911 32.7854 68.9987 32.6349 69.5004 32.6349C70.0774 32.6349 70.5633 32.7572 70.9584 33.0017L70.6009 33.8389C70.3878 33.6633 70.1307 33.5755 69.8297 33.5755C69.4409 33.5755 69.2465 33.7511 69.2465 34.1022C69.2465 34.3844 69.4628 34.6165 69.8955 34.7983C70.3533 34.9927 70.6762 35.2185 70.8644 35.4756C71.0211 35.6888 71.0995 35.9584 71.0995 36.2846ZM75.116 36.2846C75.116 36.7423 74.9467 37.1186 74.6081 37.4133C74.2444 37.7268 73.7709 37.8836 73.1877 37.8836C72.5669 37.8836 72.0715 37.7613 71.7015 37.5168L72.0778 36.5855C72.3224 36.7862 72.6233 36.8865 72.9808 36.8865C73.1689 36.8865 73.3209 36.8348 73.437 36.7313C73.553 36.6279 73.611 36.493 73.611 36.33C73.611 36.0227 73.3947 35.7829 72.962 35.6135C72.2032 35.3125 71.8238 34.8407 71.8238 34.1995C71.8238 33.7605 71.9805 33.3889 72.2941 33.088C72.6076 32.7854 73.0152 32.6349 73.5169 32.6349C74.0939 32.6349 74.5799 32.7572 74.9749 33.0017L74.6175 33.8389C74.4043 33.6633 74.1472 33.5755 73.8462 33.5755C73.4574 33.5755 73.263 33.7511 73.263 34.1022C73.263 34.3844 73.4793 34.6165 73.912 34.7983C74.3698 34.9927 74.6927 35.2185 74.8809 35.4756C75.0376 35.6888 75.116 35.9584 75.116 36.2846ZM77.5522 31.271C77.5522 31.4653 77.477 31.6284 77.3265 31.7601C77.176 31.8918 76.9911 31.9576 76.7715 31.9576C76.5521 31.9576 76.3671 31.8918 76.2166 31.7601C76.066 31.6284 75.9908 31.4653 75.9908 31.271C75.9908 31.0828 76.0676 30.9213 76.2213 30.7865C76.3749 30.6517 76.5583 30.5843 76.7715 30.5843C76.9847 30.5843 77.1681 30.6517 77.3218 30.7865C77.4754 30.9213 77.5522 31.0828 77.5522 31.271ZM77.4958 37.799H76.0379V32.7289H77.4958V37.799ZM85.8016 37.799H84.3436V34.2434C84.3436 33.7856 84.0959 33.5567 83.6005 33.5567C83.3325 33.5567 83.1161 33.6382 82.9515 33.8012V37.799H81.4935V34.2245C81.4935 33.7793 81.2285 33.5567 80.6987 33.5567C80.4713 33.5567 80.2722 33.588 80.1013 33.6507V37.799H78.6434V33.0111C79.2015 32.7603 79.885 32.6349 80.6939 32.6349C81.4151 32.6349 81.9513 32.8042 82.3024 33.1428C82.6975 32.8042 83.2556 32.6349 83.9768 32.6349C84.56 32.6349 85.0147 32.7916 85.3407 33.1052C85.648 33.3937 85.8016 33.773 85.8016 34.2434V37.799ZM91.342 35.2264C91.342 36.0274 91.1365 36.6655 90.7243 37.1421C90.3119 37.6171 89.7726 37.8554 89.1063 37.8554C88.7975 37.8554 88.5514 37.8303 88.3695 37.7801V39.8213H86.9116V33.0111C87.4132 32.7603 88.0591 32.6349 88.8493 32.6349C89.6206 32.6349 90.2257 32.8543 90.6647 33.2917C91.1162 33.7495 91.342 34.3938 91.342 35.2264ZM89.884 35.2451C89.884 34.0819 89.5296 33.5003 88.8211 33.5003C88.6518 33.5003 88.5012 33.5253 88.3695 33.5755V36.9241C88.4824 36.968 88.611 36.99 88.7552 36.99C89.5077 36.99 89.884 36.4083 89.884 35.2451ZM96.5249 35.3501L93.4866 35.7829C93.5869 36.5244 93.9946 36.896 94.7095 36.896C95.2362 36.896 95.6752 36.8019 96.0263 36.6138L96.3556 37.5262C95.8664 37.7708 95.2613 37.893 94.5401 37.893C93.7688 37.893 93.1684 37.6563 92.7388 37.1828C92.3093 36.7094 92.0945 36.065 92.0945 35.2499C92.0945 34.4471 92.2952 33.8106 92.6965 33.3404C93.0978 32.87 93.6591 32.6349 94.3802 32.6349C95.1077 32.6349 95.6548 32.87 96.0216 33.3419C96.3885 33.8138 96.5562 34.4832 96.5249 35.3501ZM95.1609 34.7983C95.1609 33.9329 94.8819 33.5003 94.3238 33.5003C94.0165 33.5003 93.7813 33.6288 93.6183 33.8859C93.4427 34.1618 93.3675 34.5537 93.3926 35.0617L95.1609 34.7983ZM101.717 37.799H100.099L99.281 36.1716L98.4532 37.799H96.9669L98.5567 35.184L97.1269 32.7289H98.6695L99.4032 34.1963H99.422L100.203 32.7289H101.567L100.109 35.0805L101.717 37.799Z" fill="#0F93D3"/>
</g>
</svg>
