<svg width="21" height="26" viewBox="0 0 21 26" fill="none" xmlns="http://www.w3.org/2000/svg">
<g id="window">
<path id="Shape" fill-rule="evenodd" clip-rule="evenodd" d="M1.53223 8.91429C1.53223 3.99907 5.53129 0 10.4465 0C15.3617 0 19.3608 3.99907 19.3607 8.91429V25.2571C19.3607 25.531 19.1389 25.7524 18.8655 25.7524H2.02745C1.7541 25.7524 1.53223 25.531 1.53223 25.2571V8.91429ZM2.52272 8.91429V24.7619H18.3703V8.91429C18.3703 4.5453 14.816 0.990496 10.4465 0.990496C6.07706 0.990496 2.52272 4.5453 2.52272 8.91429Z" fill="#00A8FF"/>
<path id="Shape_2" fill-rule="evenodd" clip-rule="evenodd" d="M3.5127 8.91431C3.5127 5.09103 6.62283 1.98096 10.446 1.98096C14.2693 1.98096 17.3794 5.09109 17.3793 8.91431V25.2572C17.3793 25.531 17.1575 25.7524 16.8841 25.7524H4.00791C3.73457 25.7524 3.5127 25.531 3.5127 25.2572V8.91431ZM4.50319 8.91431V24.7619H16.3889V8.91431C16.3889 5.63732 13.723 2.97145 10.446 2.97145C7.16906 2.97145 4.50319 5.63732 4.50319 8.91431Z" fill="#00A8FF"/>
<path id="Shape_3" d="M20.7999 26H0V24.5143H20.8V26H20.7999Z" fill="#00A8FF"/>
<path id="Shape_4" fill-rule="evenodd" clip-rule="evenodd" d="M4.00791 8.41907H10.446C10.7193 8.41907 10.9412 8.64042 10.9412 8.91429V25.2571C10.9412 25.531 10.7193 25.7524 10.446 25.7524H4.00791C3.73457 25.7524 3.5127 25.531 3.5127 25.2571V8.91429C3.5127 8.64042 3.73457 8.41907 4.00791 8.41907ZM4.50313 24.7619H9.95077V9.4095H4.50313V24.7619Z" fill="#00A8FF"/>
<path id="Shape_5" fill-rule="evenodd" clip-rule="evenodd" d="M4.00791 8.41907H10.446C10.7193 8.41907 10.9412 8.64042 10.9412 8.91429V16.8381C10.9412 17.1119 10.7193 17.3333 10.446 17.3333H4.00791C3.73457 17.3333 3.5127 17.1119 3.5127 16.8381V8.91429C3.5127 8.64042 3.73457 8.41907 4.00791 8.41907ZM4.50313 16.3429H9.95077V9.4095H4.50313V16.3429Z" fill="#00A8FF"/>
<path id="Shape_6" fill-rule="evenodd" clip-rule="evenodd" d="M4.00791 16.3429H10.446C10.7193 16.3429 10.9412 16.5642 10.9412 16.8381V25.2572C10.9412 25.5311 10.7193 25.7524 10.446 25.7524H4.00791C3.73457 25.7524 3.5127 25.5311 3.5127 25.2572V16.8381C3.5127 16.5642 3.73457 16.3429 4.00791 16.3429ZM4.50313 24.762H9.95077V17.3334H4.50313V24.762Z" fill="#00A8FF"/>
<path id="Shape_7" fill-rule="evenodd" clip-rule="evenodd" d="M10.4464 8.41907H16.8845C17.1579 8.41907 17.3797 8.64042 17.3797 8.91429V25.2571C17.3797 25.531 17.1578 25.7524 16.8845 25.7524H10.4464C10.173 25.7524 9.95117 25.531 9.95117 25.2571V8.91429C9.95117 8.64042 10.173 8.41907 10.4464 8.41907ZM10.9416 24.7619H16.3892V9.4095H10.9416V24.7619Z" fill="#00A8FF"/>
<path id="Shape_8" fill-rule="evenodd" clip-rule="evenodd" d="M10.4464 8.41907H16.8845C17.1579 8.41907 17.3797 8.64042 17.3797 8.91429V16.8381C17.3797 17.1119 17.1578 17.3333 16.8845 17.3333H10.4464C10.173 17.3333 9.95117 17.1119 9.95117 16.8381V8.91429C9.95117 8.64042 10.173 8.41907 10.4464 8.41907ZM10.9416 16.3429H16.3892V9.4095H10.9416V16.3429Z" fill="#00A8FF"/>
<path id="Shape_9" fill-rule="evenodd" clip-rule="evenodd" d="M10.4464 16.3429H16.8845C17.1579 16.3429 17.3797 16.5642 17.3797 16.8381V25.2572C17.3797 25.5311 17.1578 25.7524 16.8845 25.7524H10.4464C10.173 25.7524 9.95117 25.5311 9.95117 25.2572V16.8381C9.95117 16.5642 10.173 16.3429 10.4464 16.3429ZM10.9416 24.762H16.3892V17.3334H10.9416V24.762Z" fill="#00A8FF"/>
<path id="Path" d="M10.4464 1.98096C10.173 1.98096 9.95117 2.20231 9.95117 2.47618V8.91431C9.95117 9.18818 10.173 9.40953 10.4464 9.40953C10.7197 9.40953 10.9416 9.18818 10.9416 8.91431V2.47623C10.9416 2.20236 10.7197 1.98096 10.4464 1.98096Z" fill="#00A8FF"/>
</g>
</svg>
