<svg width="18" height="15" viewBox="0 0 18 15" fill="none" xmlns="http://www.w3.org/2000/svg">
<path d="M18 13.9148C17.9985 14.1297 17.9125 14.3353 17.7607 14.4874C17.6088 14.6394 17.4032 14.7256 17.1884 14.7273H2.448C2.23267 14.7271 2.02622 14.6414 1.87404 14.489C1.72185 14.3367 1.63636 14.1302 1.63636 13.9148V13.0909H16.3636V3.51818L9.81818 9.40909L1.63636 2.04545V0.818182C1.63636 0.601187 1.72256 0.393079 1.876 0.23964C2.02944 0.086201 2.23755 0 2.45455 0H17.1818C17.3988 0 17.6069 0.086201 17.7604 0.23964C17.9138 0.393079 18 0.601187 18 0.818182V13.9148ZM3.62782 1.63636L9.81818 7.20818L16.0085 1.63636H3.62782ZM0 9.81818H6.54545V11.4545H0V9.81818ZM0 5.72727H4.09091V7.36364H0V5.72727Z" fill="#00A9FF"/>
</svg>
